<?xml version="1.0" encoding="iso-8859-1"?>
<!-- Generator: Adobe Illustrator 19.0.0, SVG Export Plug-In . SVG Version: 6.00 Build 0)  -->
<svg version="1.1" id="Layer_1" xmlns="http://www.w3.org/2000/svg" xmlns:xlink="http://www.w3.org/1999/xlink" x="0px" y="0px"
	 viewBox="0 0 512 512" style="enable-background:new 0 0 512 512;" xml:space="preserve">
<g>
	<g>
		<path d="M502.07,162.173l-185.534,57.923l-6.76-7.177c-27.985-29.708-64.516-49.973-103.979-58.388
			c2.144-5.225,3.336-10.938,3.336-16.926c0-24.666-20.066-44.732-44.732-44.732s-44.732,20.066-44.732,44.732
			c0,5.988,1.191,11.701,3.336,16.926c-39.462,8.416-75.994,28.68-103.979,58.388L0,233.112l16.145,186.015h296.507l14.533-167.448
			L512,193.982L502.07,162.173z M164.399,126.195c6.291,0,11.409,5.117,11.409,11.409s-5.117,11.409-11.409,11.409
			s-11.409-5.117-11.409-11.409S158.108,126.195,164.399,126.195z M164.399,183.468c39.154,0,77.187,14.026,106.975,38.976H57.425
			C87.213,197.495,125.245,183.468,164.399,183.468z M282.096,385.804H46.702L35.415,255.767h257.967L282.096,385.804z"/>
	</g>
</g>
<g>
</g>
<g>
</g>
<g>
</g>
<g>
</g>
<g>
</g>
<g>
</g>
<g>
</g>
<g>
</g>
<g>
</g>
<g>
</g>
<g>
</g>
<g>
</g>
<g>
</g>
<g>
</g>
<g>
</g>
</svg>
